# xmcd
#
# Track frame offsets:
#	150
#	14566
#	30729
#	46029
#	57697
#	66496
#	79301
#	92906
#	107366
#	121444
#	139041
#	154004
#	171424
#	181993
#	198196
#	212702
#	222789
#	233982
#	248029
#	259637
#	270071
#	280807
#	290981
#	305549
#	325896
#	337464
#	347326
#	361817
#	377923
#
# Disc length: 5235 seconds
#
# Revision: 0
# Processed by: cddbd v1.5.2PL0 Copyright (c) Steve Scherf et al.
# Submitted via: EasyCDDAExtractor 2010.6.0.0
#
DISCID=bd14711d
DTITLE=George Hamilton IV - My North Country Home CD 2
DYEAR=1900
DGENRE=
TTITLE0=Urge For Going
TTITLE1=Circle Game
TTITLE2=Both Sides Now
TTITLE3=Take My Hand For Awhile
TTITLE4=I'm Gonna Be A Country Boy Again
TTITLE5=Suzanne (1968)
TTITLE6=Sisters Of Mercy
TTITLE7=Together Alone
TTITLE8=Goin' Down The Road
TTITLE9=Child's Song
TTITLE10=Farmers Song
TTITLE11=Dirty Old Man
TTITLE12=Time's Run Out On You
TTITLE13=Put Your Hand In The Hand
TTITLE14=Just Bidin' My Time
TTITLE15=Call
TTITLE16=Snowbird
TTITLE17=Isle Of St. Jean
TTITLE18=Shake The Dust
TTITLE19=It's All Over
TTITLE20=Countryfied
TTITLE21=Moody Manitoba Morning
TTITLE22=If You've Been Wondering
TTITLE23=Nothing Changes But The Seasons
TTITLE24=Love Is Still Around
TTITLE25=Williams Lake Stampede
TTITLE26=Where Would I Be Now
TTITLE27=Circle Game (Alt.)
TTITLE28=Suzanne (1972)
EXTD=
EXTT0=
EXTT1=
EXTT2=
EXTT3=
EXTT4=
EXTT5=
EXTT6=
EXTT7=
EXTT8=
EXTT9=
EXTT10=
EXTT11=
EXTT12=
EXTT13=
EXTT14=
EXTT15=
EXTT16=
EXTT17=
EXTT18=
EXTT19=
EXTT20=
EXTT21=
EXTT22=
EXTT23=
EXTT24=
EXTT25=
EXTT26=
EXTT27=
EXTT28=
PLAYORDER=
